<svg xmlns="http://www.w3.org/2000/svg" width="286.34" height="69.93" viewBox="0 0 286.34 69.93">
  <defs>
    <style>
      .a {
        opacity: 0.3;
      }

      .b {
        fill: #010101;
      }

      .c {
        fill: #fefaf0;
      }
    </style>
  </defs>
  <g>
    <g class="a">
      <g>
        <path class="b" d="M48.32,14.89a15.5,15.5,0,0,0-3.91-1.16,29.38,29.38,0,0,0-4.9-.38,35.89,35.89,0,0,0-10,1.54A37.68,37.68,0,0,0,20,19a20.93,20.93,0,0,0-5.52,4.86,8.23,8.23,0,0,0-2.11,4.83,3.72,3.72,0,0,0,1.17,2.87,4.41,4.41,0,0,0,3.16,1.09,12.4,12.4,0,0,0,6.92-2.62,17.54,17.54,0,0,0,5.68-6.25,12.63,12.63,0,0,0,1.09-3.13Q30.7,19,31,19c.26,0,.44.16.55.47a8.25,8.25,0,0,1,.15,2,12.88,12.88,0,0,1-3.76,9.36,12.09,12.09,0,0,1-9,3.84A8.49,8.49,0,0,1,13.43,33a5.49,5.49,0,0,1-2.14-4.46,8.74,8.74,0,0,1,2.11-5.27,21.34,21.34,0,0,1,5.89-5.09A37.53,37.53,0,0,1,29.09,14a40.76,40.76,0,0,1,10.84-1.5A24.51,24.51,0,0,1,45,13a22.38,22.38,0,0,1,4.62,1.48c1.11-.28,2-.51,2.75-.67a8.86,8.86,0,0,1,1.4-.24,1.12,1.12,0,0,1,.5.09.29.29,0,0,1,.16.27c0,.31-.5.56-1.51.76-.71.12-1.29.24-1.76.36a9.56,9.56,0,0,1,3.89,2.89,6.34,6.34,0,0,1,1.38,3.93,7.7,7.7,0,0,1-3.12,6,22.05,22.05,0,0,1-8.84,4.09,9.93,9.93,0,0,1,5,2.92,7.4,7.4,0,0,1,1.65,5q0,4.35-4.3,8.16a13.71,13.71,0,0,1-9.23,3.8,6.29,6.29,0,0,1-3.84-1,3.48,3.48,0,0,1-1.37-2.94,6.64,6.64,0,0,1,2.24-4.53q2.25-2.28,3.42-2.28a.62.62,0,0,1,.38.12.36.36,0,0,1,.17.3c0,.16-.36.49-1.09,1-2.58,1.74-3.88,3.52-3.88,5.36a2.79,2.79,0,0,0,.67,1.94,2.28,2.28,0,0,0,1.76.72,4.6,4.6,0,0,0,2.84-1.15,15.7,15.7,0,0,0,3.06-3.48,23.55,23.55,0,0,0,2.63-5,12.8,12.8,0,0,0,.88-4.48,5.12,5.12,0,0,0-.66-2.68,1.91,1.91,0,0,0-1.61-1.11,8.23,8.23,0,0,0-1.06.14,8.12,8.12,0,0,1-1.36.13,1.65,1.65,0,0,1-1-.27.78.78,0,0,1-.38-.66.7.7,0,0,1,.3-.59,1.27,1.27,0,0,1,.82-.23c.08,0,.44.05,1.09.16a9.84,9.84,0,0,0,1.81.17c1.58,0,3.24-1.28,5-3.83a13.91,13.91,0,0,0,2.63-8,5.77,5.77,0,0,0-.44-2.31,4.79,4.79,0,0,0-1.25-1.77q-5.52,1.94-9.84,13-1.27,3.3-2.06,5-4.06,9.18-9.64,13.46a21.56,21.56,0,0,1-13.49,4.28,12.19,12.19,0,0,1-7.19-1.92,6,6,0,0,1-2.71-5.1A5.46,5.46,0,0,1,6,40.23a5.06,5.06,0,0,1,3.79-1.6,3.91,3.91,0,0,1,2.63.86,2.72,2.72,0,0,1,1,2.19,3.14,3.14,0,0,1-.68,2.06,2.17,2.17,0,0,1-1.59.91H11c-2.52.2-3.78.86-3.78,2s.64,1.8,1.93,2.5a10,10,0,0,0,4.76,1,9.78,9.78,0,0,0,4.64-1.1,13.62,13.62,0,0,0,4-3.53,63.07,63.07,0,0,0,5.12-8.14q3.12-5.64,4.42-7.75a46.73,46.73,0,0,1,8-9.8A20.54,20.54,0,0,1,48.32,14.89Z"/>
        <path class="b" d="M73.87,35.6l1.48-3,6.06-.45L75.05,45.26c-.53,1.05-1,1.93-1.27,2.66a5.58,5.58,0,0,0-.49,1.3.88.88,0,0,0,.2.59A.64.64,0,0,0,74,50q.87,0,6.39-5.48c.93-.91,1.64-1.62,2.15-2.15q4.17-4.11,6.39-5.9c1.47-1.19,2.51-1.79,3.11-1.79l.46.09.21,0Q90.54,36,85.07,41.5c-1,1-1.84,1.83-2.42,2.39l-1.82,1.88q-5.83,5.94-9,5.94a3.7,3.7,0,0,1-2.69-1,3.4,3.4,0,0,1-1-2.59,8,8,0,0,1,.19-1.81,8.39,8.39,0,0,1,.62-1.73,21.48,21.48,0,0,1-4.83,5.27,8,8,0,0,1-4.73,1.78,5.32,5.32,0,0,1-3.94-1.51,5.4,5.4,0,0,1-1.51-4,10.11,10.11,0,0,1,1.33-5.07,15.84,15.84,0,0,1,4.12-4.52,26.51,26.51,0,0,1,5.26-3.26,11.41,11.41,0,0,1,4.55-1.1,5.38,5.38,0,0,1,3.19.86A3.94,3.94,0,0,1,73.87,35.6ZM72.81,36a2.45,2.45,0,0,0-.68-1.78,2.33,2.33,0,0,0-1.74-.7,4.79,4.79,0,0,0-2.88,1.64,38.21,38.21,0,0,0-4.21,5A53.16,53.16,0,0,0,59.55,46a8.2,8.2,0,0,0-1.18,3.56,1.27,1.27,0,0,0,.29.93,1.23,1.23,0,0,0,1,.31,6.06,6.06,0,0,0,3.3-1.4A23.83,23.83,0,0,0,67,45.53a45.37,45.37,0,0,0,4.26-5.74A8.78,8.78,0,0,0,72.81,36Z"/>
        <path class="b" d="M96.79,35.66c-1.13.12-2,.2-2.5.24S93.33,36,93,36h-.21a9.6,9.6,0,0,0-1-.06h-1l-2.42,2.3c-.36.35-.82.8-1.36,1.37-.95,1-1.58,1.48-1.88,1.48a.48.48,0,0,1-.35-.14.46.46,0,0,1-.13-.35c0-.22.54-.85,1.63-1.9l1.27-1.27,2.18-2.12.06-.25c.73-2.8,1.31-4.2,1.73-4.2a.67.67,0,0,1,.57.24,1.27,1.27,0,0,1,.18.76,2.16,2.16,0,0,1,0,.27,2.59,2.59,0,0,0,0,.48,1.14,1.14,0,0,0,.5,1.06,9,9,0,0,0,2.74.55,10.55,10.55,0,0,1,4.21,1.07A2.5,2.5,0,0,1,101,37.51c0,1-1.2,3.05-3.6,6.32L96.3,45.26l-.51.69c-1.4,1.9-2.09,3.12-2.09,3.67a.35.35,0,0,0,.16.3.71.71,0,0,0,.41.12q1.16,0,8.27-6.93l.79-.76q4.29-4.27,6.44-6c1.44-1.16,2.44-1.74,3-1.74l.45.09.22,0Q111,36,106,41.29l-2.18,2.24-.42.43q-7.61,7.68-10.57,7.68a3.88,3.88,0,0,1-3-1.18,4.47,4.47,0,0,1-1.11-3.21A11.32,11.32,0,0,1,91,41.08,17.84,17.84,0,0,1,96.79,35.66Z"/>
        <path class="b" d="M141.8,36.33a12.08,12.08,0,0,1-8-2.86,8.72,8.72,0,0,1-3.11-6.8q0-5.57,5.6-9.82A21.92,21.92,0,0,1,150,12.59a14.13,14.13,0,0,1,2.72.17c.46.11.7.31.7.59a.49.49,0,0,1-.19.38.6.6,0,0,1-.42.16l-.44-.06a4.37,4.37,0,0,0-.68-.06A18.86,18.86,0,0,0,139,18.16q-5.16,4.39-5.15,10.17A6.42,6.42,0,0,0,136,33.39a8.44,8.44,0,0,0,5.77,1.91h.49a49.4,49.4,0,0,1,10-16.32q6.1-6.45,11-6.45a4.27,4.27,0,0,1,3.27,1.41,5,5,0,0,1,1.3,3.5c0,2.94-1.62,6-4.86,9.3a38.26,38.26,0,0,1-12.85,8.16,27.6,27.6,0,0,1-8.84,12.16,20.08,20.08,0,0,1-12.51,4.65,13,13,0,0,1-7.47-1.9,5.88,5.88,0,0,1-2.76-5.1,5.39,5.39,0,0,1,1.56-3.92,5.09,5.09,0,0,1,3.77-1.59,3.89,3.89,0,0,1,2.59.86,2.75,2.75,0,0,1,1,2.17,3.3,3.3,0,0,1-.66,2.09,2.52,2.52,0,0,1-1.94.91c-2.36.16-3.54.83-3.54,2,0,.89.65,1.71,2,2.44a9.13,9.13,0,0,0,4.55,1.11q4,0,7.64-3.76A32,32,0,0,0,141.8,36.33Zm8.93-3a28.61,28.61,0,0,0,10.69-7.87q4.38-5.18,4.39-8.81a3.52,3.52,0,0,0-.61-2.3,2.28,2.28,0,0,0-1.87-.73c-2.29,0-4.5,1.68-6.65,5S152.55,26.94,150.73,33.36Z"/>
        <path class="b" d="M174.62,35.6l1.48-3,6.06-.45L175.8,45.26c-.53,1.05-1,1.93-1.27,2.66a6.16,6.16,0,0,0-.49,1.3.88.88,0,0,0,.2.59.64.64,0,0,0,.5.23c.59,0,2.71-1.83,6.39-5.48.93-.91,1.64-1.62,2.15-2.15q4.17-4.11,6.39-5.9c1.47-1.19,2.51-1.79,3.11-1.79l.46.09.21,0q-2.14,1.15-7.63,6.66c-1,1-1.84,1.83-2.42,2.39l-1.82,1.88q-5.84,5.94-9,5.94a3.7,3.7,0,0,1-2.69-1,3.4,3.4,0,0,1-1-2.59,8,8,0,0,1,.19-1.81,9,9,0,0,1,.62-1.73,21.66,21.66,0,0,1-4.82,5.27,8.08,8.08,0,0,1-4.74,1.78,5.32,5.32,0,0,1-3.94-1.51,5.4,5.4,0,0,1-1.51-4A10.11,10.11,0,0,1,156,41.06a15.84,15.84,0,0,1,4.12-4.52,26.28,26.28,0,0,1,5.27-3.26,11.33,11.33,0,0,1,4.54-1.1,5.38,5.38,0,0,1,3.19.86A3.94,3.94,0,0,1,174.62,35.6Zm-1.06.42a2.45,2.45,0,0,0-.68-1.78,2.33,2.33,0,0,0-1.74-.7,4.79,4.79,0,0,0-2.88,1.64,38.21,38.21,0,0,0-4.21,5A53.16,53.16,0,0,0,160.3,46a8.2,8.2,0,0,0-1.18,3.56,1.27,1.27,0,0,0,.29.93,1.23,1.23,0,0,0,1,.31,6.06,6.06,0,0,0,3.3-1.4,23.83,23.83,0,0,0,4.06-3.87A45.55,45.55,0,0,0,172,39.79,8.86,8.86,0,0,0,173.56,36Z"/>
        <path class="b" d="M196.57,41.47a50.66,50.66,0,0,1,7.08-7c2-1.52,3.68-2.28,5.06-2.28a3.37,3.37,0,0,1,2.83,1.32,5.86,5.86,0,0,1,1,3.64,8.31,8.31,0,0,1-.91,3.62A33.91,33.91,0,0,1,208,46.2l-.91,1.12a4.71,4.71,0,0,0-1.27,2.11.49.49,0,0,0,.18.4.74.74,0,0,0,.49.15,5.85,5.85,0,0,0,2.61-1.38,46,46,0,0,0,4.47-3.89l1.18-1.15q9.21-9,10.72-9a2.71,2.71,0,0,1,.45.09l.24,0q-2.26,1.19-9.26,8.24l-.79.81-.33.34q-7.45,7.53-10.6,7.53a3.47,3.47,0,0,1-2.84-1.39,5.6,5.6,0,0,1-1.12-3.63,7.86,7.86,0,0,1,.77-3.3,24.52,24.52,0,0,1,3-4.45l1.79-2.12a9.35,9.35,0,0,0,1.88-2.57.56.56,0,0,0-.14-.41.76.76,0,0,0-.47-.17c-1.55,0-3.88,1.59-7,4.75a100,100,0,0,0-10.28,12.93l-8.17.43,4.84-7.12q2.34-3.42,3.39-5.24A6.63,6.63,0,0,0,191.9,37a.79.79,0,0,0-.1-.45.45.45,0,0,0-.32-.18c-.36,0-1.12.57-2.27,1.71s-1.91,1.71-2.27,1.71a.37.37,0,0,1-.21-.06q-.09-.06-.09-.12a1.32,1.32,0,0,1,.28-.72,9.29,9.29,0,0,1,1-1.07,39.58,39.58,0,0,1,4.48-4.21,5.26,5.26,0,0,1,2.84-1.33A2.13,2.13,0,0,1,197,33.33a5.23,5.23,0,0,1,.71,2.88,10.9,10.9,0,0,1-.31,2.55A17.32,17.32,0,0,1,196.57,41.47Z"/>
        <path class="b" d="M223.39,36.66c-.59.56-1.32,1.3-2.21,2.21-1.41,1.45-2.27,2.18-2.57,2.18a.48.48,0,0,1-.49-.49c0-.24.44-.74,1.3-1.51A20.15,20.15,0,0,0,221,37.63l1.75-1.73a35.77,35.77,0,0,0,5.39-7.17l.43-.7,7-11.59,6.24-.25-4.64,7.94h4.33l-.36,1.42h-5l-7.32,12.59a81.72,81.72,0,0,0-3.86,7.31,14,14,0,0,0-1.47,4.23.46.46,0,0,0,.21.39.92.92,0,0,0,.55.15c.5,0,1.41-.53,2.72-1.59s3.3-2.88,6-5.46l.69-.73q8.06-7.84,9.51-7.84a3.23,3.23,0,0,1,.48.09l.21,0q-2.17,1.16-7.29,6.39-2,2.09-3.18,3.24l-.49.45q-6.84,6.84-10,6.84a3.52,3.52,0,0,1-2.78-1.12,4.43,4.43,0,0,1-1-3.08c0-1.52,1.06-4.36,3.18-8.54C222.74,37.93,223.13,37.18,223.39,36.66Z"/>
        <path class="b" d="M250.58,47.19q2.68-.39,6.81-4.48l1-1c2.58-2.55,4.56-4.37,5.94-5.48s2.36-1.67,2.93-1.67a3.23,3.23,0,0,1,.48.09l.21,0q-2.26,1.22-7.17,6.24-2.46,2.51-3.88,3.87a15.9,15.9,0,0,1-4,3,8.52,8.52,0,0,1-3.86.91h-.36a16,16,0,0,1-3.82,2.3,10.09,10.09,0,0,1-3.69.67A5.93,5.93,0,0,1,236.75,50a6.11,6.11,0,0,1-1.67-4.46,9.85,9.85,0,0,1,1.67-5.15,18.07,18.07,0,0,1,4.56-4.84A19.56,19.56,0,0,1,245.94,33a12.67,12.67,0,0,1,4.42-.92,5.68,5.68,0,0,1,4.15,1.42,5.38,5.38,0,0,1,1.45,4A9.22,9.22,0,0,1,254.72,42,25.36,25.36,0,0,1,250.58,47.19Zm-3.94,1.22c-.08-.23-.14-.4-.18-.53a1.23,1.23,0,0,1-.06-.32,2.14,2.14,0,0,1,.92-1.68,3.38,3.38,0,0,1,2.2-.74h.12a25,25,0,0,0,3.19-4.79A9.11,9.11,0,0,0,254,36.48a3.72,3.72,0,0,0-.61-2.26,2,2,0,0,0-1.69-.8q-1.48,0-3.8,2.42a35.22,35.22,0,0,0-4.74,6.57,23.83,23.83,0,0,0-1.73,3.5,7.67,7.67,0,0,0-.57,2.59,2,2,0,0,0,.42,1.4,1.71,1.71,0,0,0,1.3.44,4.81,4.81,0,0,0,2-.5A7.91,7.91,0,0,0,246.64,48.41Z"/>
        <path class="b" d="M266.74,35.42a26.65,26.65,0,0,0-3.94,3.48c-1.35,1.43-2.17,2.15-2.45,2.15a.48.48,0,0,1-.35-.14.46.46,0,0,1-.13-.35c0-.24.46-.79,1.39-1.66l1-.94,1.85-1.75.9-.85a24.75,24.75,0,0,0,2.7-2.79c.14-.22.32-.53.54-.94.47-.82.89-1.24,1.28-1.24a.74.74,0,0,1,.5.21.64.64,0,0,1,.22.46c0,.16-.27.54-.8,1.13a2.57,2.57,0,0,0-.8,1.53,10.39,10.39,0,0,0,1.71,3.12,9.78,9.78,0,0,1,1.71,5.51,6.57,6.57,0,0,1-.5,2.59,9.43,9.43,0,0,1-1.68,2.5q3.81-3,9-7.92t6.46-4.92a1.74,1.74,0,0,0,1-.24.21.21,0,0,0-.14.09,3.17,3.17,0,0,0-.2.27,34.23,34.23,0,0,0-6.66,5.75c-1,1.07-1.82,1.89-2.39,2.46q-5.6,5.53-8.47,7.19a11.65,11.65,0,0,1-5.85,1.65,6.28,6.28,0,0,1-3.92-1.22,3.57,3.57,0,0,1-1.59-2.93,2.65,2.65,0,0,1,.78-1.94,2.55,2.55,0,0,1,1.89-.79,2.12,2.12,0,0,1,1.59.62,2.37,2.37,0,0,1,.59,1.68,2.1,2.1,0,0,1-.59,1.44,1.73,1.73,0,0,1-1.29.65,3.18,3.18,0,0,1-.47,0,2.34,2.34,0,0,1-.38-.09,3,3,0,0,0,1,.76,2.43,2.43,0,0,0,1.07.24c1.64,0,2.95-1.2,3.95-3.6a25.41,25.41,0,0,0,1.5-9.6Z"/>
      </g>
    </g>
    <g>
      <path class="c" d="M47.32,13.89a15.5,15.5,0,0,0-3.91-1.16,29.38,29.38,0,0,0-4.9-.38,35.89,35.89,0,0,0-10,1.54A37.68,37.68,0,0,0,19,18a20.93,20.93,0,0,0-5.52,4.86,8.23,8.23,0,0,0-2.11,4.83,3.72,3.72,0,0,0,1.17,2.87,4.41,4.41,0,0,0,3.16,1.09,12.4,12.4,0,0,0,6.92-2.62,17.54,17.54,0,0,0,5.68-6.25,12.63,12.63,0,0,0,1.09-3.13Q29.7,18,30,18c.26,0,.44.16.55.47a8.25,8.25,0,0,1,.15,2,12.88,12.88,0,0,1-3.76,9.36,12.09,12.09,0,0,1-9,3.84A8.49,8.49,0,0,1,12.43,32a5.49,5.49,0,0,1-2.14-4.46,8.74,8.74,0,0,1,2.11-5.27,21.34,21.34,0,0,1,5.89-5.09A37.53,37.53,0,0,1,28.09,13a40.76,40.76,0,0,1,10.84-1.5A24.51,24.51,0,0,1,44,12a22.38,22.38,0,0,1,4.62,1.48c1.11-.28,2-.51,2.75-.67a8.86,8.86,0,0,1,1.4-.24,1.12,1.12,0,0,1,.5.09.29.29,0,0,1,.16.27c0,.31-.5.56-1.51.76-.71.12-1.29.24-1.76.36a9.56,9.56,0,0,1,3.89,2.89,6.34,6.34,0,0,1,1.38,3.93,7.7,7.7,0,0,1-3.12,6,22.05,22.05,0,0,1-8.84,4.09,9.93,9.93,0,0,1,5,2.92,7.4,7.4,0,0,1,1.65,5q0,4.35-4.3,8.16a13.71,13.71,0,0,1-9.23,3.8,6.29,6.29,0,0,1-3.84-1,3.48,3.48,0,0,1-1.37-2.94,6.64,6.64,0,0,1,2.24-4.53q2.25-2.28,3.42-2.28a.62.62,0,0,1,.38.12.36.36,0,0,1,.17.3c0,.16-.36.49-1.09,1-2.58,1.74-3.88,3.52-3.88,5.36a2.79,2.79,0,0,0,.67,1.94,2.28,2.28,0,0,0,1.76.72,4.6,4.6,0,0,0,2.84-1.15,15.7,15.7,0,0,0,3.06-3.48,23.55,23.55,0,0,0,2.63-5,12.8,12.8,0,0,0,.88-4.48,5.12,5.12,0,0,0-.66-2.68,1.91,1.91,0,0,0-1.61-1.11,8.23,8.23,0,0,0-1.06.14,8.12,8.12,0,0,1-1.36.13,1.65,1.65,0,0,1-1-.27.78.78,0,0,1-.38-.66.7.7,0,0,1,.3-.59,1.27,1.27,0,0,1,.82-.23c.08,0,.44.05,1.09.16a9.84,9.84,0,0,0,1.81.17c1.58,0,3.24-1.28,5-3.83a13.91,13.91,0,0,0,2.63-8,5.77,5.77,0,0,0-.44-2.31,4.79,4.79,0,0,0-1.25-1.77q-5.52,1.94-9.84,13-1.27,3.3-2.06,5-4.06,9.18-9.64,13.46a21.56,21.56,0,0,1-13.49,4.28,12.19,12.19,0,0,1-7.19-1.92,6,6,0,0,1-2.71-5.1A5.46,5.46,0,0,1,5,39.23a5.06,5.06,0,0,1,3.79-1.6,3.91,3.91,0,0,1,2.63.86,2.72,2.72,0,0,1,1,2.19,3.14,3.14,0,0,1-.68,2.06,2.17,2.17,0,0,1-1.59.91H10c-2.52.2-3.78.86-3.78,2s.64,1.8,1.93,2.5a10,10,0,0,0,4.76,1,9.78,9.78,0,0,0,4.64-1.1,13.62,13.62,0,0,0,4-3.53,63.07,63.07,0,0,0,5.12-8.14q3.12-5.64,4.42-7.75a46.73,46.73,0,0,1,8-9.8A20.54,20.54,0,0,1,47.32,13.89Z"/>
      <path class="c" d="M72.87,34.6l1.48-3,6.06-.45L74.05,44.26c-.53,1.05-1,1.93-1.27,2.66a5.58,5.58,0,0,0-.49,1.3.88.88,0,0,0,.2.59A.64.64,0,0,0,73,49q.87,0,6.39-5.48c.93-.91,1.64-1.62,2.15-2.15q4.17-4.11,6.39-5.9c1.47-1.19,2.51-1.79,3.11-1.79l.46.09.21,0Q89.54,35,84.07,40.5c-1,1-1.84,1.83-2.42,2.39l-1.82,1.88q-5.83,5.94-9,5.94a3.7,3.7,0,0,1-2.69-1,3.4,3.4,0,0,1-1-2.59,8,8,0,0,1,.19-1.81,8.39,8.39,0,0,1,.62-1.73,21.48,21.48,0,0,1-4.83,5.27,8,8,0,0,1-4.73,1.78,5.32,5.32,0,0,1-3.94-1.51,5.4,5.4,0,0,1-1.51-4,10.11,10.11,0,0,1,1.33-5.07,15.84,15.84,0,0,1,4.12-4.52,26.51,26.51,0,0,1,5.26-3.26,11.41,11.41,0,0,1,4.55-1.1,5.38,5.38,0,0,1,3.19.86A3.94,3.94,0,0,1,72.87,34.6ZM71.81,35a2.45,2.45,0,0,0-.68-1.78,2.33,2.33,0,0,0-1.74-.7,4.79,4.79,0,0,0-2.88,1.64,38.21,38.21,0,0,0-4.21,5A53.16,53.16,0,0,0,58.55,45a8.2,8.2,0,0,0-1.18,3.56,1.27,1.27,0,0,0,.29.93,1.23,1.23,0,0,0,1,.31,6.06,6.06,0,0,0,3.3-1.4A23.83,23.83,0,0,0,66,44.53a45.37,45.37,0,0,0,4.26-5.74A8.78,8.78,0,0,0,71.81,35Z"/>
      <path class="c" d="M95.79,34.66c-1.13.12-2,.2-2.5.24S92.33,35,92,35h-.21a9.6,9.6,0,0,0-1-.06h-1l-2.42,2.3c-.36.35-.82.8-1.36,1.37-.95,1-1.58,1.48-1.88,1.48a.48.48,0,0,1-.35-.14.46.46,0,0,1-.13-.35c0-.22.54-.85,1.63-1.9l1.27-1.27,2.18-2.12.06-.25c.73-2.8,1.31-4.2,1.73-4.2a.67.67,0,0,1,.57.24,1.27,1.27,0,0,1,.18.76,2.16,2.16,0,0,1,0,.27,2.59,2.59,0,0,0,0,.48,1.14,1.14,0,0,0,.5,1.06,9,9,0,0,0,2.74.55,10.55,10.55,0,0,1,4.21,1.07A2.5,2.5,0,0,1,100,36.51c0,1-1.2,3.05-3.6,6.32L95.3,44.26l-.51.69c-1.4,1.9-2.09,3.12-2.09,3.67a.35.35,0,0,0,.16.3.71.71,0,0,0,.41.12q1.16,0,8.27-6.93l.79-.76q4.29-4.27,6.44-6c1.44-1.16,2.44-1.74,3-1.74l.45.09.22,0Q110,35,105,40.29l-2.18,2.24-.42.43q-7.61,7.68-10.57,7.68a3.88,3.88,0,0,1-3-1.18,4.47,4.47,0,0,1-1.11-3.21A11.32,11.32,0,0,1,90,40.08,17.84,17.84,0,0,1,95.79,34.66Z"/>
      <path class="c" d="M140.8,35.33a12.08,12.08,0,0,1-8-2.86,8.72,8.72,0,0,1-3.11-6.8q0-5.57,5.6-9.82A21.92,21.92,0,0,1,149,11.59a14.13,14.13,0,0,1,2.72.17c.46.11.7.31.7.59a.49.49,0,0,1-.19.38.6.6,0,0,1-.42.16l-.44-.06a4.37,4.37,0,0,0-.68-.06A18.86,18.86,0,0,0,138,17.16q-5.16,4.39-5.15,10.17A6.42,6.42,0,0,0,135,32.39a8.44,8.44,0,0,0,5.77,1.91h.49a49.4,49.4,0,0,1,10-16.32q6.1-6.45,11-6.45a4.27,4.27,0,0,1,3.27,1.41,5,5,0,0,1,1.3,3.5c0,2.94-1.62,6-4.86,9.3a38.26,38.26,0,0,1-12.85,8.16,27.6,27.6,0,0,1-8.84,12.16,20.08,20.08,0,0,1-12.51,4.65,13,13,0,0,1-7.47-1.9,5.88,5.88,0,0,1-2.76-5.1,5.39,5.39,0,0,1,1.56-3.92,5.09,5.09,0,0,1,3.77-1.59,3.89,3.89,0,0,1,2.59.86,2.75,2.75,0,0,1,1,2.17,3.3,3.3,0,0,1-.66,2.09,2.52,2.52,0,0,1-1.94.91c-2.36.16-3.54.83-3.54,2,0,.89.65,1.71,2,2.44a9.13,9.13,0,0,0,4.55,1.11q4,0,7.64-3.76A32,32,0,0,0,140.8,35.33Zm8.93-3a28.61,28.61,0,0,0,10.69-7.87q4.38-5.18,4.39-8.81a3.52,3.52,0,0,0-.61-2.3,2.28,2.28,0,0,0-1.87-.73c-2.29,0-4.5,1.68-6.65,5S151.55,25.94,149.73,32.36Z"/>
      <path class="c" d="M173.62,34.6l1.48-3,6.06-.45L174.8,44.26c-.53,1.05-1,1.93-1.27,2.66a6.16,6.16,0,0,0-.49,1.3.88.88,0,0,0,.2.59.64.64,0,0,0,.5.23c.59,0,2.71-1.83,6.39-5.48.93-.91,1.64-1.62,2.15-2.15q4.17-4.11,6.39-5.9c1.47-1.19,2.51-1.79,3.11-1.79l.46.09.21,0q-2.14,1.15-7.63,6.66c-1,1-1.84,1.83-2.42,2.39l-1.82,1.88q-5.84,5.94-9,5.94a3.7,3.7,0,0,1-2.69-1,3.4,3.4,0,0,1-1-2.59,8,8,0,0,1,.19-1.81,9,9,0,0,1,.62-1.73,21.66,21.66,0,0,1-4.82,5.27,8.08,8.08,0,0,1-4.74,1.78,5.32,5.32,0,0,1-3.94-1.51,5.4,5.4,0,0,1-1.51-4A10.11,10.11,0,0,1,155,40.06a15.84,15.84,0,0,1,4.12-4.52,26.28,26.28,0,0,1,5.27-3.26,11.33,11.33,0,0,1,4.54-1.1,5.38,5.38,0,0,1,3.19.86A3.94,3.94,0,0,1,173.62,34.6Zm-1.06.42a2.45,2.45,0,0,0-.68-1.78,2.33,2.33,0,0,0-1.74-.7,4.79,4.79,0,0,0-2.88,1.64,38.21,38.21,0,0,0-4.21,5A53.16,53.16,0,0,0,159.3,45a8.2,8.2,0,0,0-1.18,3.56,1.27,1.27,0,0,0,.29.93,1.23,1.23,0,0,0,1,.31,6.06,6.06,0,0,0,3.3-1.4,23.83,23.83,0,0,0,4.06-3.87A45.55,45.55,0,0,0,171,38.79,8.86,8.86,0,0,0,172.56,35Z"/>
      <path class="c" d="M195.57,40.47a50.66,50.66,0,0,1,7.08-7c2-1.52,3.68-2.28,5.06-2.28a3.37,3.37,0,0,1,2.83,1.32,5.86,5.86,0,0,1,1,3.64,8.31,8.31,0,0,1-.91,3.62A33.91,33.91,0,0,1,207,45.2l-.91,1.12a4.71,4.71,0,0,0-1.27,2.11.49.49,0,0,0,.18.4.74.74,0,0,0,.49.15,5.85,5.85,0,0,0,2.61-1.38,46,46,0,0,0,4.47-3.89l1.18-1.15q9.21-9,10.72-9a2.71,2.71,0,0,1,.45.09l.24,0q-2.26,1.19-9.26,8.24l-.79.81-.33.34q-7.45,7.53-10.6,7.53a3.47,3.47,0,0,1-2.84-1.39,5.6,5.6,0,0,1-1.12-3.63,7.86,7.86,0,0,1,.77-3.3,24.52,24.52,0,0,1,3-4.45l1.79-2.12a9.35,9.35,0,0,0,1.88-2.57.56.56,0,0,0-.14-.41.76.76,0,0,0-.47-.17c-1.55,0-3.88,1.59-7,4.75a100,100,0,0,0-10.28,12.93l-8.17.43,4.84-7.12q2.34-3.42,3.39-5.24A6.63,6.63,0,0,0,190.9,36a.79.79,0,0,0-.1-.45.45.45,0,0,0-.32-.18c-.36,0-1.12.57-2.27,1.71s-1.91,1.71-2.27,1.71a.37.37,0,0,1-.21-.06q-.09-.06-.09-.12a1.32,1.32,0,0,1,.28-.72,9.29,9.29,0,0,1,1-1.07,39.58,39.58,0,0,1,4.48-4.21,5.26,5.26,0,0,1,2.84-1.33A2.13,2.13,0,0,1,196,32.33a5.23,5.23,0,0,1,.71,2.88,10.9,10.9,0,0,1-.31,2.55A17.32,17.32,0,0,1,195.57,40.47Z"/>
      <path class="c" d="M222.39,35.66c-.59.56-1.32,1.3-2.21,2.21-1.41,1.45-2.27,2.18-2.57,2.18a.48.48,0,0,1-.49-.49c0-.24.44-.74,1.3-1.51A20.15,20.15,0,0,0,220,36.63l1.75-1.73a35.77,35.77,0,0,0,5.39-7.17l.43-.7,7-11.59,6.24-.25-4.64,7.94h4.33l-.36,1.42h-5l-7.32,12.59a81.72,81.72,0,0,0-3.86,7.31,14,14,0,0,0-1.47,4.23.46.46,0,0,0,.21.39.92.92,0,0,0,.55.15c.5,0,1.41-.53,2.72-1.59s3.3-2.88,6-5.46l.69-.73q8.06-7.84,9.51-7.84a3.23,3.23,0,0,1,.48.09l.21,0q-2.17,1.16-7.29,6.39-2,2.09-3.18,3.24l-.49.45q-6.84,6.84-10,6.84a3.52,3.52,0,0,1-2.78-1.12,4.43,4.43,0,0,1-1-3.08c0-1.52,1.06-4.36,3.18-8.54C221.74,36.93,222.13,36.18,222.39,35.66Z"/>
      <path class="c" d="M249.58,46.19q2.68-.39,6.81-4.48l1-1c2.58-2.55,4.56-4.37,5.94-5.48s2.36-1.67,2.93-1.67a3.23,3.23,0,0,1,.48.09l.21,0q-2.26,1.22-7.17,6.24-2.46,2.51-3.88,3.87a15.9,15.9,0,0,1-4,3,8.52,8.52,0,0,1-3.86.91h-.36a16,16,0,0,1-3.82,2.3,10.09,10.09,0,0,1-3.69.67A5.93,5.93,0,0,1,235.75,49a6.11,6.11,0,0,1-1.67-4.46,9.85,9.85,0,0,1,1.67-5.15,18.07,18.07,0,0,1,4.56-4.84A19.56,19.56,0,0,1,244.94,32a12.67,12.67,0,0,1,4.42-.92,5.68,5.68,0,0,1,4.15,1.42,5.38,5.38,0,0,1,1.45,4A9.22,9.22,0,0,1,253.72,41,25.36,25.36,0,0,1,249.58,46.19Zm-3.94,1.22c-.08-.23-.14-.4-.18-.53a1.23,1.23,0,0,1-.06-.32,2.14,2.14,0,0,1,.92-1.68,3.38,3.38,0,0,1,2.2-.74h.12a25,25,0,0,0,3.19-4.79A9.11,9.11,0,0,0,253,35.48a3.72,3.72,0,0,0-.61-2.26,2,2,0,0,0-1.69-.8q-1.48,0-3.8,2.42a35.22,35.22,0,0,0-4.74,6.57,23.83,23.83,0,0,0-1.73,3.5,7.67,7.67,0,0,0-.57,2.59,2,2,0,0,0,.42,1.4,1.71,1.71,0,0,0,1.3.44,4.81,4.81,0,0,0,2-.5A7.91,7.91,0,0,0,245.64,47.41Z"/>
      <path class="c" d="M265.74,34.42a26.65,26.65,0,0,0-3.94,3.48c-1.35,1.43-2.17,2.15-2.45,2.15a.48.48,0,0,1-.35-.14.46.46,0,0,1-.13-.35c0-.24.46-.79,1.39-1.66l1-.94,1.85-1.75.9-.85a24.75,24.75,0,0,0,2.7-2.79c.14-.22.32-.53.54-.94.47-.82.89-1.24,1.28-1.24a.74.74,0,0,1,.5.21.64.64,0,0,1,.22.46c0,.16-.27.54-.8,1.13a2.57,2.57,0,0,0-.8,1.53,10.39,10.39,0,0,0,1.71,3.12,9.78,9.78,0,0,1,1.71,5.51,6.57,6.57,0,0,1-.5,2.59,9.43,9.43,0,0,1-1.68,2.5q3.81-3,9-7.92t6.46-4.92a1.74,1.74,0,0,0,1-.24.21.21,0,0,0-.14.09,3.17,3.17,0,0,0-.2.27,34.23,34.23,0,0,0-6.66,5.75c-1,1.07-1.82,1.89-2.39,2.46q-5.6,5.53-8.47,7.19a11.65,11.65,0,0,1-5.85,1.65,6.28,6.28,0,0,1-3.92-1.22,3.57,3.57,0,0,1-1.59-2.93,2.65,2.65,0,0,1,.78-1.94,2.55,2.55,0,0,1,1.89-.79,2.12,2.12,0,0,1,1.59.62,2.37,2.37,0,0,1,.59,1.68,2.1,2.1,0,0,1-.59,1.44,1.73,1.73,0,0,1-1.29.65,3.18,3.18,0,0,1-.47,0,2.34,2.34,0,0,1-.38-.09,3,3,0,0,0,1,.76,2.43,2.43,0,0,0,1.07.24c1.64,0,2.95-1.2,3.95-3.6a25.41,25.41,0,0,0,1.5-9.6Z"/>
    </g>
  </g>
</svg>
