<?xml version="1.0" encoding="utf-8"?>
<!-- Generator: Adobe Illustrator 26.0.0, SVG Export Plug-In . SVG Version: 6.00 Build 0)  -->
<svg version="1.1" id="Livello_1" xmlns="http://www.w3.org/2000/svg" xmlns:xlink="http://www.w3.org/1999/xlink" x="0px" y="0px"
	 viewBox="0 0 167.4 155" style="enable-background:new 0 0 167.4 155;" xml:space="preserve">
<style type="text/css">
	.st0{fill:#FFFFFF;}
</style>
<path class="st0" d="M13.5,75h-11V23h11V75z M106.5,23h-11v52h11V23z M0,76l2.2,5h104.7l2.3-5H0z M0,6l2.2,5h104.7l2.3-5H0z
	 M106.5,15H3.5v8h103V15z M106.5,82H3.5v8h103V82z M106.5,12H3.5v2h103V12z M85.5,0h-62v3h62V0z M94.5,23v52h-80V23H94.5z
	 M52.7,31.7c0,1.1,0.9,2,2,2c1.1,0,2-0.9,2-2s-0.9-2-2-2C53.5,29.7,52.7,30.6,52.7,31.7z M17.5,38h-2v30h2V38z M42.5,37.5
	c0-5.9-5.5-10.5-11.7-9.1c-4.3,1-7.3,5-7.3,9.4V68h19V37.5z M60.5,43.6c0-3.7-3.4-6.6-7.3-5.8c-2.8,0.6-4.7,3.2-4.7,6V68h12V43.6z
	 M85.5,37.5c0-5.9-5.5-10.5-11.7-9.1c-4.3,1-7.3,5-7.3,9.4V68h19C85.5,68,85.5,37.5,85.5,37.5z M93.5,38h-2v30h2V38z M17.7,92H2.5
	v63h16.7c9.4,0,14.3-5.2,14.3-14.9V135c0-6.6-2-11.3-7-13.4v-0.6c4.1-1.9,6-5.8,6-11.8v-2.7C32.5,96.8,28.1,92,17.7,92z M17.4,101
	c3.6,0,5.1,2,5.1,6.6v3.6c0,5.2-2.3,6.8-6,6.8h-3.9v-17C12.5,101,17.4,101,17.4,101z M17,127c4.6,0,6.5,1.8,6.5,7.5v5.4
	c0,4.6-1.8,6.1-5.2,6.1h-5.8v-19H17z M61.3,92H46.8l-10.1,63h9.4l1.7-11h11.7l1.6,11h10.3L61.3,92z M53.5,103h0.2l4.7,32h-9.6
	L53.5,103z M106.5,155c-0.9-2.3-1-4.6-1-7.6v-9.7c0-6.6-1.5-11.2-6-13.3V124c4.1-2.1,6-6.2,6-12.6v-4.9c0-9.7-4.1-14.4-13.6-14.4
	H75.5v63h10v-26H89c4.5,0,6.5,2.2,6.5,8.1v10c0,5.2,0.4,6.2,0.9,7.8L106.5,155L106.5,155z M90.4,101c3.6,0,5.1,1.9,5.1,6.4v6.1
	c0,4.9-2.3,6.5-6.1,6.5h-3.9v-19C85.5,101,90.4,101,90.4,101z M166.5,136v-9h-56v8h33v0.2l-33,9.1V155h56v-8h-40v-0.2L166.5,136z
	 M110.5,121h42.2c8.9,0,14-4.4,14-13s-5.1-13-14-13h-42.2v9h42.6c3.9,0,5.4,1.7,5.4,4.5s-1.4,4.5-5.4,4.5h-42.6V121z M153.2,90
	c9.1,0,14.2-4.8,14.2-13.5S162.2,63,153.2,63h-29.4c-9.1,0-14.2,4.8-14.2,13.5S114.7,90,123.7,90H153.2z M123.5,81
	c-3.9,0-5.4-1.7-5.4-4.5s1.5-4.5,5.4-4.5h29.8c3.9,0,5.4,1.7,5.4,4.5s-1.5,4.5-5.4,4.5H123.5z M110.5,51.4v9l56-8.6V38.6l-56-8.6
	v8.2l45,6.5v0.2L110.5,51.4z M153.2,27c9.1,0,14.2-4.8,14.2-13.5S162.2,0,153.2,0h-29.4c-9.1,0-14.2,4.8-14.2,13.5
	S114.7,27,123.7,27H153.2z M123.5,18c-3.9,0-5.4-1.7-5.4-4.5s1.5-4.5,5.4-4.5h29.8c3.9,0,5.4,1.7,5.4,4.5s-1.5,4.5-5.4,4.5H123.5z"
	/>
</svg>
