<?xml version="1.0" encoding="utf-8"?>
<!-- Generator: Adobe Illustrator 26.0.0, SVG Export Plug-In . SVG Version: 6.00 Build 0)  -->
<svg version="1.1" id="Livello_1" xmlns="http://www.w3.org/2000/svg" xmlns:xlink="http://www.w3.org/1999/xlink" x="0px" y="0px"
	 viewBox="0 0 167.39 155" style="enable-background:new 0 0 167.39 155;" xml:space="preserve">
<style type="text/css">
	.st0{fill:#131718;}
</style>
<path class="st0" d="M13.53,75h-11V23h11V75z M106.53,23h-11v52h11V23z M0,76l2.25,5h104.7l2.32-5H0z M0,6l2.25,5h104.7l2.32-5H0z
	 M106.53,15h-103v8h103V15z M106.53,82h-103v8h103V82z M106.53,12h-103v2h103V12z M85.53,0h-62v3h62V0z M94.53,23v52h-80V23H94.53z
	 M52.66,31.67c0,1.1,0.89,1.99,1.99,1.99c1.1,0,1.99-0.89,1.99-1.99c0-1.1-0.89-1.99-1.99-1.99C53.55,29.67,52.66,30.57,52.66,31.67
	z M17.53,38h-2v30h2V38z M42.53,37.54c0-5.9-5.51-10.53-11.73-9.14c-4.32,0.97-7.27,4.99-7.27,9.42V68h19V37.54z M60.53,43.56
	c0-3.72-3.44-6.63-7.33-5.8c-2.77,0.59-4.67,3.18-4.67,6.01l0,24.23h12V43.56z M85.53,37.54c0-5.9-5.51-10.53-11.73-9.14
	c-4.32,0.97-7.27,4.99-7.27,9.42V68h19V37.54z M93.53,38h-2v30h2V38z M17.67,92H2.53v63h16.74c9.39,0,14.26-5.2,14.26-14.89V135
	c0-6.64-1.96-11.29-7-13.36v-0.58c4.14-1.95,6-5.75,6-11.83v-2.74C32.53,96.77,28.06,92,17.67,92z M17.39,101
	c3.58,0,5.14,2.02,5.14,6.62v3.58c0,5.15-2.29,6.8-6.05,6.8h-3.95v-17H17.39z M17.02,127c4.58,0,6.51,1.77,6.51,7.51v5.39
	c0,4.6-1.83,6.1-5.22,6.1h-5.78v-19H17.02z M61.33,92H46.84l-10.08,63h9.39l1.65-11h11.69l1.64,11h10.28L61.33,92z M53.5,103h0.18
	l4.7,32H48.8L53.5,103z M106.52,155c-0.9-2.33-0.99-4.57-0.99-7.62v-9.68c0-6.55-1.48-11.21-6-13.27v-0.41c4.08-2.07,6-6.19,6-12.64
	v-4.94c0-9.68-4.08-14.43-13.58-14.43H75.53v63h10v-26h3.46c4.54,0,6.54,2.19,6.54,8.12v10.04c0,5.2,0.36,6.2,0.91,7.84H106.52z
	 M90.39,101c3.58,0,5.14,1.94,5.14,6.37v6.09c0,4.95-2.29,6.54-6.05,6.54h-3.95v-19H90.39z M166.53,136.04V127h-56v8h33v0.16
	l-33,9.06V155h56v-8h-40v-0.16L166.53,136.04z M110.53,121h42.25c8.88,0,13.96-4.44,13.96-13s-5.07-13-13.96-13h-42.25v9h42.63
	c3.95,0,5.37,1.74,5.37,4.5c0,2.76-1.42,4.5-5.37,4.5h-42.63V121z M153.16,90c9.05,0,14.22-4.77,14.22-13.5
	c0-8.73-5.17-13.5-14.22-13.5h-29.43c-9.05,0-14.22,4.77-14.22,13.5c0,8.73,5.17,13.5,14.22,13.5H153.16z M123.52,81
	c-3.95,0-5.44-1.74-5.44-4.5c0-2.76,1.5-4.5,5.44-4.5h29.85c3.95,0,5.45,1.74,5.45,4.5c0,2.76-1.5,4.5-5.45,4.5H123.52z
	 M110.53,51.41v8.98l56-8.64V38.63l-56-8.64v8.18l45,6.54v0.16L110.53,51.41z M153.16,27c9.05,0,14.22-4.77,14.22-13.5
	c0-8.73-5.17-13.5-14.22-13.5h-29.43c-9.05,0-14.22,4.77-14.22,13.5c0,8.73,5.17,13.5,14.22,13.5H153.16z M123.52,18
	c-3.95,0-5.44-1.74-5.44-4.5c0-2.76,1.5-4.5,5.44-4.5h29.85c3.95,0,5.45,1.74,5.45,4.5c0,2.76-1.5,4.5-5.45,4.5H123.52z"/>
</svg>
