<?xml version="1.0" encoding="utf-8"?>
<!-- Generator: Adobe Illustrator 26.0.0, SVG Export Plug-In . SVG Version: 6.00 Build 0)  -->
<svg version="1.1" id="Layer_1" xmlns="http://www.w3.org/2000/svg" xmlns:xlink="http://www.w3.org/1999/xlink" x="0px" y="0px"
	 viewBox="0 0 595.3 841.9" style="enable-background:new 0 0 595.3 841.9;" xml:space="preserve">
<style type="text/css">
	.Drop_x0020_Shadow{fill:none;}
	.Round_x0020_Corners_x0020_2_x0020_pt{fill:#FFFFFF;stroke:#000000;stroke-miterlimit:10;}
	.Live_x0020_Reflect_x0020_X{fill:none;}
	.Bevel_x0020_Soft{fill:url(#SVGID_1_);}
	.Dusk{fill:#FFFFFF;}
	.Foliage_GS{fill:#FFDD00;}
	.Pompadour_GS{fill-rule:evenodd;clip-rule:evenodd;fill:#51AEE2;}
	.st0{fill:#F9B233;}
</style>
<linearGradient id="SVGID_1_" gradientUnits="userSpaceOnUse" x1="0" y1="0" x2="0.7071" y2="0.7071">
	<stop  offset="0" style="stop-color:#E6E6EB"/>
	<stop  offset="0.1738" style="stop-color:#E2E2E6"/>
	<stop  offset="0.352" style="stop-color:#D5D4D8"/>
	<stop  offset="0.5323" style="stop-color:#C0BFC2"/>
	<stop  offset="0.7139" style="stop-color:#A4A2A4"/>
	<stop  offset="0.8949" style="stop-color:#828282"/>
	<stop  offset="1" style="stop-color:#6B6E6E"/>
</linearGradient>
<rect x="508.3" y="31.3" class="st0" width="73.6" height="3.6"/>
<rect x="565.5" y="18.5" class="st0" width="16.4" height="3.6"/>
<rect x="572" y="25" transform="matrix(6.123234e-17 -1 1 6.123234e-17 553.2791 606.9151)" class="st0" width="16.1" height="3.6"/>
<polyline class="st0" points="565.5,92.1 565.5,18.5 569,18.5 569,92.1 565.5,92.1 "/>
<rect x="520.4" y="33" transform="matrix(6.123234e-17 -1 1 6.123234e-17 493.6046 561.3695)" class="st0" width="14.1" height="1.8"/>
<rect x="559.7" y="72.2" transform="matrix(-1 -1.224647e-16 1.224647e-16 -1 1133.4641 146.0947)" class="st0" width="14.1" height="1.8"/>
<polyline class="st0" points="526.6,25.2 575.1,25.2 575.1,26.9 526.6,26.9 "/>
<polyline class="st0" points="573.5,73.9 573.5,25.2 575.3,25.2 575.3,73.9 "/>
<polyline class="st0" points="508.3,39.4 561.2,39.4 561.2,40.9 508.3,40.9 "/>
<polyline class="st0" points="559.7,92.1 559.7,39.4 561.2,39.4 561.2,92.1 "/>
<rect x="13.4" y="31.3" transform="matrix(-1 -6.673007e-12 6.673007e-12 -1 521.7101 66.2198)" class="st0" width="494.9" height="3.6"/>
<rect x="13.4" y="18.5" transform="matrix(-1 -4.491220e-11 4.491220e-11 -1 43.222 40.6173)" class="st0" width="16.4" height="3.6"/>
<rect x="7.1" y="25" transform="matrix(4.485396e-11 -1 1 4.485396e-11 -11.6395 41.9964)" class="st0" width="16.1" height="3.6"/>
<polyline class="st0" points="29.8,692.5 29.8,18.5 26.3,18.5 26.3,692.5 29.8,692.5 "/>
<rect x="60.7" y="33" transform="matrix(4.493123e-11 -1 1 4.493123e-11 33.9061 101.671)" class="st0" width="14.1" height="1.8"/>
<rect x="21.5" y="72.2" class="st0" width="14.1" height="1.8"/>
<polyline class="st0" points="68.7,25.2 20.2,25.2 20.2,26.9 68.7,26.9 "/>
<polyline class="st0" points="21.8,73.9 21.8,25.2 20,25.2 20,73.9 "/>
<polyline class="st0" points="508.3,39.4 34.1,39.4 34.1,40.9 508.3,40.9 "/>
<polyline class="st0" points="35.6,751.4 35.6,40.9 34.1,40.9 34.1,751.4 "/>
<rect x="508.3" y="808.6" class="st0" width="73.6" height="3.6"/>
<rect x="565.5" y="821.4" class="st0" width="16.4" height="3.6"/>
<rect x="572" y="814.9" transform="matrix(-1.836970e-16 1 -1 -1.836970e-16 1396.7411 236.5468)" class="st0" width="16.1" height="3.6"/>
<polyline class="st0" points="565.5,92.1 565.5,821.4 569,821.4 569,92.1 565.5,92.1 "/>
<rect x="520.4" y="808.7" transform="matrix(-1.836970e-16 1 -1 -1.836970e-16 1337.0665 282.0925)" class="st0" width="14.1" height="1.8"/>
<rect x="559.7" y="769.5" transform="matrix(-1 -1.224647e-16 1.224647e-16 -1 1133.4641 1540.8292)" class="st0" width="14.1" height="1.8"/>
<polyline class="st0" points="526.6,818.3 575.1,818.3 575.1,816.5 526.6,816.5 "/>
<polyline class="st0" points="573.5,769.5 573.5,818.3 575.3,818.3 575.3,769.5 "/>
<polyline class="st0" points="508.3,804 561.2,804 561.2,802.5 508.3,802.5 "/>
<polyline class="st0" points="559.7,92.1 559.7,802.5 561.2,802.5 561.2,92.1 "/>
<rect x="13.4" y="808.6" transform="matrix(-1 6.670986e-12 -6.670986e-12 -1 521.7101 1620.7041)" class="st0" width="494.9" height="3.6"/>
<rect x="13.4" y="821.4" transform="matrix(-1 4.491195e-11 -4.491195e-11 -1 43.222 1646.3066)" class="st0" width="16.4" height="3.6"/>
<rect x="7.1" y="814.9" transform="matrix(4.485371e-11 1 -1 4.485371e-11 831.8224 801.4655)" class="st0" width="16.1" height="3.6"/>
<polyline class="st0" points="29.8,692.5 29.8,824.9 26.3,824.9 26.3,692.5 29.8,692.5 "/>
<rect x="60.7" y="808.7" transform="matrix(4.493099e-11 1 -1 4.493099e-11 877.368 741.791)" class="st0" width="14.1" height="1.8"/>
<rect x="21.5" y="769.5" class="st0" width="14.1" height="1.8"/>
<polyline class="st0" points="68.7,818.3 20.2,818.3 20.2,816.5 68.7,816.5 "/>
<polyline class="st0" points="21.8,769.5 21.8,818.3 20,818.3 20,769.5 "/>
<polyline class="st0" points="508.3,804 34.1,804 34.1,802.5 508.3,802.5 "/>
<polyline class="st0" points="35.6,751.4 35.6,804 34.1,804 34.1,751.4 "/>
</svg>
